<svg width="63" height="32" viewBox="0 0 63 32" fill="none" xmlns="http://www.w3.org/2000/svg">
<path d="M15.6875 27H3.46094V23.3672H7.5625V8.875C7.38021 9.51302 7.0612 10.0794 6.60547 10.5742C6.16276 11.069 5.6224 11.4857 4.98438 11.8242C4.35938 12.1497 3.65625 12.4036 2.875 12.5859C2.10677 12.7552 1.3125 12.8398 0.492188 12.8398V8.79688C1.3776 8.79688 2.23698 8.65365 3.07031 8.36719C3.91667 8.06771 4.67188 7.61849 5.33594 7.01953C6 6.42057 6.53385 5.67188 6.9375 4.77344C7.35417 3.86198 7.5625 2.77474 7.5625 1.51172H11.6055V23.3672H15.6875V27ZM37.5234 0.320312L40.5312 1.80469L25.5703 31.9219L22.5625 30.4375L37.5234 0.320312ZM62.3672 27H50.1211V23.3672H54.2031V20.2031H44.1641V16.5508L53.4805 1.51172H58.207V16.5508H62.3672V20.2031H58.207V23.3672H62.3672V27ZM54.2031 16.5508V6.27734L47.7969 16.5508H54.2031Z" fill="#232323"/>
</svg>
